<svg width="104" height="32" viewBox="0 0 104 32" fill="none" xmlns="http://www.w3.org/2000/svg">
<path d="M10.4183 16.4032C14.6145 16.4032 16.5892 18.6044 16.5892 21.6208C16.5892 24.9225 14.4088 27.0421 11.1177 27.0421C7.90878 27.0421 5.76952 25.0856 5.76952 21.6615H0.585938C0.585938 28.102 5.15243 31.689 11.0354 31.689C17.124 31.689 21.9374 27.8166 21.9374 21.7023C21.9374 16.444 18.3582 13.1015 13.7506 12.2047L21.0734 5.51969V1.36194H1.98468V5.96807H14.4911L6.75687 13.0199V16.4032H10.4183Z" fill="#B9FF66"/>
<path d="M36.1032 31.1591C44.8248 31.1591 50.8311 25.0855 50.8311 16.3217C50.8311 7.43551 44.7014 1.36194 35.8152 1.36194H25.2835V31.1591H36.1032ZM35.3215 6.17188C41.5336 6.17188 45.2773 10.0035 45.2773 16.3217C45.2773 22.5175 41.6159 26.3492 35.6095 26.3492H30.5494V6.17188H35.3215Z" fill="#B9FF66"/>
<path d="M59.6858 31.1591V10.0443L73.8378 31.1591H79.0214V1.36194H73.8378V22.4768L59.7269 1.36194H54.5022V31.1591H59.6858Z" fill="#B9FF66"/>
<path d="M82.3948 9.67743C82.3948 14.2428 85.0689 17.1369 90.1702 18.2375L94.9424 19.2973C97.4108 19.8272 98.4392 21.0093 98.4392 23.0067C98.4392 25.4932 96.2177 27.0014 92.7209 27.0014C89.3474 27.0014 87.2904 25.4932 87.2493 22.9659H81.9834C82.1068 28.3058 86.3031 31.689 92.7209 31.689C99.3443 31.689 103.705 28.102 103.705 22.5583C103.705 18.1152 101.196 15.5064 96.0531 14.4058L91.3221 13.3868C88.8126 12.8161 87.6607 11.634 87.6607 9.51438C87.6607 7.02789 89.7588 5.47892 93.0088 5.47892C95.9709 5.47892 97.8222 6.98712 97.9456 9.55515H103.211C103.047 4.17453 99.1798 0.832031 93.0911 0.832031C86.7556 0.832031 82.3948 4.45987 82.3948 9.67743Z" fill="#B9FF66"/>
</svg>
