<svg width="104" height="31" viewBox="0 0 104 31" fill="none" xmlns="http://www.w3.org/2000/svg">
<path d="M10.4183 15.5712C14.6145 15.5712 16.5892 17.7723 16.5892 20.7887C16.5892 24.0905 14.4088 26.2101 11.1177 26.2101C7.90878 26.2101 5.76952 24.2535 5.76952 20.8295H0.585938C0.585938 27.2699 5.15243 30.857 11.0354 30.857C17.124 30.857 21.9374 26.9846 21.9374 20.8703C21.9374 15.6119 18.3582 12.2694 13.7506 11.3727L21.0734 4.68766V0.529909H1.98468V5.13604H14.4911L6.75687 12.1879V15.5712H10.4183Z" fill="#121212"/>
<path d="M36.1032 30.3271C44.8248 30.3271 50.8311 24.2535 50.8311 15.4896C50.8311 6.60348 44.7014 0.529909 35.8152 0.529909H25.2835V30.3271H36.1032ZM35.3215 5.33985C41.5336 5.33985 45.2773 9.1715 45.2773 15.4896C45.2773 21.6855 41.6159 25.5171 35.6095 25.5171H30.5494V5.33985H35.3215Z" fill="#121212"/>
<path d="M59.6858 30.3271V9.21226L73.8378 30.3271H79.0214V0.529909H73.8378V21.6447L59.7269 0.529909H54.5022V30.3271H59.6858Z" fill="#121212"/>
<path d="M82.3948 8.8454C82.3948 13.4108 85.0689 16.3049 90.1702 17.4055L94.9424 18.4653C97.4108 18.9952 98.4392 20.1773 98.4392 22.1746C98.4392 24.6611 96.2177 26.1693 92.7209 26.1693C89.3474 26.1693 87.2904 24.6611 87.2493 22.1339H81.9834C82.1068 27.4737 86.3031 30.857 92.7209 30.857C99.3443 30.857 103.705 27.2699 103.705 21.7263C103.705 17.2832 101.196 14.6744 96.0531 13.5738L91.3221 12.5548C88.8126 11.9841 87.6607 10.802 87.6607 8.68235C87.6607 6.19586 89.7588 4.64689 93.0088 4.64689C95.9709 4.64689 97.8222 6.15509 97.9456 8.72311H103.211C103.047 3.3425 99.1798 0 93.0911 0C86.7556 0 82.3948 3.62784 82.3948 8.8454Z" fill="#121212"/>
</svg>
