<svg width="156" height="39" viewBox="0 0 156 39" fill="none" xmlns="http://www.w3.org/2000/svg">
<path d="M20.9938 8.63299L26.5092 0H0V8.63299H20.9938Z" fill="#B9FF66"/>
<path d="M20.9938 8.63299H32.7362L27.9325 16.9207H16.0122L20.9938 8.63299Z" fill="#B9FF66"/>
<path d="M5.54471 19.4894H16.1262L22.0968 29.2033C22.1452 29.2822 22.1468 29.3808 22.101 29.4612L16.6599 39L5.32299 19.8732C5.22233 19.7034 5.34593 19.4894 5.54471 19.4894Z" fill="#B9FF66"/>
<path d="M53.4192 20.4015C57.6154 20.4015 59.5901 22.6026 59.5901 25.6191C59.5901 28.9208 57.4097 31.0404 54.1186 31.0404C50.9097 31.0404 48.7704 29.0838 48.7704 25.6598H43.5868C43.5868 32.1002 48.1533 35.6873 54.0363 35.6873C60.1249 35.6873 64.9383 31.8149 64.9383 25.7006C64.9383 20.4422 61.3591 17.0997 56.7515 16.203L64.0743 9.51798V5.36023H44.9856V9.96636H57.492L49.7578 17.0182V20.4015H53.4192Z" fill="#B9FF66"/>
<path d="M79.1041 35.1574C87.8257 35.1574 93.832 29.0838 93.832 20.32C93.832 11.4338 87.7023 5.36023 78.8161 5.36023H68.2844V35.1574H79.1041ZM78.3224 10.1702C84.5345 10.1702 88.2782 14.0018 88.2782 20.32C88.2782 26.5158 84.6168 30.3475 78.6104 30.3475H73.5503V10.1702H78.3224Z" fill="#B9FF66"/>
<path d="M102.687 35.1574V14.0426L116.839 35.1574H122.022V5.36023H116.839V26.4751L102.728 5.36023H97.5031V35.1574H102.687Z" fill="#B9FF66"/>
<path d="M125.396 13.6757C125.396 18.2411 128.07 21.1352 133.171 22.2358L137.943 23.2956C140.412 23.8255 141.44 25.0076 141.44 27.005C141.44 29.4915 139.219 30.9997 135.722 30.9997C132.348 30.9997 130.291 29.4915 130.25 26.9642H124.984C125.108 32.3041 129.304 35.6873 135.722 35.6873C142.345 35.6873 146.706 32.1002 146.706 26.5566C146.706 22.1135 144.196 19.5047 139.054 18.4041L134.323 17.3851C131.813 16.8144 130.662 15.6323 130.662 13.5127C130.662 11.0262 132.76 9.47721 136.01 9.47721C138.972 9.47721 140.823 10.9854 140.946 13.5534H146.212C146.048 8.17282 142.181 4.83032 136.092 4.83032C129.757 4.83032 125.396 8.45816 125.396 13.6757Z" fill="#B9FF66"/>
<path d="M152.668 35.6466C154.478 35.6466 156 34.1791 156 32.4263C156 30.6328 154.478 29.1654 152.668 29.1654C150.858 29.1654 149.335 30.6328 149.335 32.4263C149.335 34.1791 150.858 35.6466 152.668 35.6466Z" fill="#B9FF66"/>
</svg>
