<svg width="156" height="39" viewBox="0 0 156 39" fill="none" xmlns="http://www.w3.org/2000/svg">
<path d="M20.9335 8.63299L26.433 0H0V8.63299H20.9335Z" fill="white"/>
<path d="M20.9335 8.63299H32.6421L27.8522 16.9207H15.9662L20.9335 8.63299Z" fill="white"/>
<path d="M5.52877 19.4894H16.0798L22.0333 29.2033C22.0816 29.2822 22.0832 29.3808 22.0375 29.4612L16.6121 39L5.3077 19.8732C5.20732 19.7034 5.33056 19.4894 5.52877 19.4894Z" fill="white"/>
<path d="M53.2657 20.4015C57.4499 20.4015 59.4189 22.6026 59.4189 25.6191C59.4189 28.9208 57.2448 31.0404 53.9631 31.0404C50.7634 31.0404 48.6303 29.0838 48.6303 25.6598H43.4616C43.4616 32.1002 48.015 35.6873 53.881 35.6873C59.9522 35.6873 64.7517 31.8149 64.7517 25.7006C64.7517 20.4422 61.1828 17.0997 56.5884 16.203L63.8902 9.51798V5.36023H44.8563V9.96636H57.3268L49.6148 17.0182V20.4015H53.2657Z" fill="white"/>
<path d="M78.8768 35.1574C87.5733 35.1574 93.5624 29.0838 93.5624 20.32C93.5624 11.4338 87.4502 5.36023 78.5896 5.36023H68.0882V35.1574H78.8768ZM78.0974 10.1702C84.2916 10.1702 88.0245 14.0018 88.0245 20.32C88.0245 26.5158 84.3736 30.3475 78.3845 30.3475H73.3389V10.1702H78.0974Z" fill="white"/>
<path d="M102.392 35.1574V14.0426L116.503 35.1574H121.672V5.36023H116.503V26.4751L102.433 5.36023H97.2229V35.1574H102.392Z" fill="white"/>
<path d="M125.035 13.6757C125.035 18.2411 127.702 21.1352 132.788 22.2358L137.547 23.2956C140.008 23.8255 141.034 25.0076 141.034 27.005C141.034 29.4915 138.819 30.9997 135.332 30.9997C131.968 30.9997 129.917 29.4915 129.876 26.9642H124.625C124.748 32.3041 128.932 35.6873 135.332 35.6873C141.936 35.6873 146.284 32.1002 146.284 26.5566C146.284 22.1135 143.782 19.5047 138.654 18.4041L133.937 17.3851C131.435 16.8144 130.286 15.6323 130.286 13.5127C130.286 11.0262 132.378 9.47721 135.619 9.47721C138.572 9.47721 140.418 10.9854 140.541 13.5534H145.792C145.628 8.17282 141.772 4.83032 135.701 4.83032C129.384 4.83032 125.035 8.45816 125.035 13.6757Z" fill="white"/>
<path d="M152.229 35.6466C154.034 35.6466 155.552 34.1791 155.552 32.4263C155.552 30.6328 154.034 29.1654 152.229 29.1654C150.424 29.1654 148.906 30.6328 148.906 32.4263C148.906 34.1791 150.424 35.6466 152.229 35.6466Z" fill="white"/>
</svg>
